<?xml version="1.0" encoding="utf-8"?>
<!-- Generator: Adobe Illustrator 19.2.1, SVG Export Plug-In . SVG Version: 6.00 Build 0)  -->
<svg version="1.1" id="Layer_1" xmlns="http://www.w3.org/2000/svg" xmlns:xlink="http://www.w3.org/1999/xlink" x="0px" y="0px"
	 viewBox="0 0 96 150" style="enable-background:new 0 0 96 150;" xml:space="preserve">
<style type="text/css">
	.st0{display:none;fill:none;stroke:#FFFFFF;stroke-width:2;stroke-linecap:round;stroke-miterlimit:10;}
	.st1{fill:#A2F1FF;}
	.st2{fill:#FF868A;}
	.st3{fill:#FFFFFF;}
	.st4{fill:#58595B;}
	.st5{fill:#E5E6E7;}
	.st6{fill:#A3D3E3;}
	.st7{fill:#DD797F;}
	.st8{fill:#6D6E71;}
	.st9{fill:#4A4A4B;}
	.st10{fill:#414042;}
	.st11{fill:#E75C54;}
	.st12{fill:#FFE336;}
	.st13{fill:#56C681;}
	.st14{fill:#F37970;}
	.st15{fill:#FFEE85;}
	.st16{fill:#79D29B;}
	.st17{fill:#C44242;}
	.st18{fill:#FFBC13;}
	.st19{fill:#3AAB64;}
	.st20{fill:#4E4D4F;}
	.st21{fill:#63CF83;}
	.st22{fill:#FFE77A;}
	.st23{fill:#4FC37B;}
	.st24{fill:#FCDA71;}
	.st25{fill:#F0F1F1;}
	.st26{fill:#E38026;}
	.st27{fill:#BBBDBF;}
	.st28{fill:#7CC9B4;}
	.st29{fill:#8BDBC7;}
	.st30{fill:#3EBDA4;}
	.st31{fill:#4E706E;}
	.st32{fill:#3EAD95;}
	.st33{fill:#BA9C44;}
	.st34{fill:#B0933E;}
	.st35{fill:#F2C84C;}
	.st36{fill:#3A3A3B;}
	.st37{fill:#EF5E90;}
	.st38{fill:#363637;}
	.st39{fill:#A87C50;}
	.st40{fill:#594A42;}
	.st41{fill:#FFFDE7;}
	.st42{fill:#CAA94C;}
	.st43{fill:#D0D2D3;}
	.st44{fill:#8F6A44;}
	.st45{fill:#483B34;}
	.st46{fill:#AE923D;}
	.st47{fill:#D9D9CA;}
	.st48{fill:#BB3D45;}
	.st49{fill:#42362F;}
	.st50{fill:#10CD88;}
	.st51{fill:#166BFF;}
	.st52{fill:#FDEA41;}
	.st53{fill:#FDE140;}
	.st54{fill:#FDCF3E;}
	.st55{fill:#FFB13F;}
	.st56{fill:#FFE65D;}
	.st57{fill:#FF8432;}
	.st58{fill:#3B4B92;}
	.st59{fill:#69CA6D;}
	.st60{fill:#54C16D;}
	.st61{fill:#32A373;}
	.st62{fill:#00D869;}
	.st63{fill:#00AB65;}
	.st64{fill:#00912A;}
	.st65{fill:#D6AF67;}
	.st66{fill:#8F8056;}
	.st67{fill:#4C4D4F;}
	.st68{fill:#B19254;}
	.st69{fill:#56585A;}
	.st70{fill:#7E724C;}
	.st71{fill:#1A8200;}
	.st72{fill:#2F6000;}
	.st73{fill:#053100;}
	.st74{fill:#092400;}
	.st75{fill:#011200;}
	.st76{fill:#788BD0;}
	.st77{fill:#2E2A2B;}
	.st78{fill:#393435;}
	.st79{fill:#231F20;}
	.st80{fill:#FFA323;}
	.st81{fill:#FFB124;}
	.st82{fill:#FF8F19;}
	.st83{fill:#76B620;}
	.st84{fill:#9CBE47;}
	.st85{fill:#F9DF37;}
	.st86{fill:#F9CC37;}
	.st87{fill:#7C9C47;}
	.st88{fill:#807947;}
	.st89{fill:#C6A66C;}
	.st90{fill:#B89B65;}
	.st91{fill:#493C35;}
	.st92{fill:#FFFFE8;}
	.st93{fill:#FFF8D6;}
	.st94{fill:#603913;}
	.st95{fill:#4C4B4D;}
	.st96{fill:#E4E5E6;}
	.st97{fill:#6C6D6F;}
	.st98{fill:#93DBAE;}
	.st99{fill:#EFF0F0;}
	.st100{fill:#CFD1D2;}
	.st101{fill:#FFE98C;}
	.st102{fill:#FFD76C;}
	.st103{fill:#8C97D8;}
	.st104{fill:#1CC7C7;}
	.st105{fill:#CC66B6;}
	.st106{fill:#CD7EC5;}
	.st107{fill:#E598D9;}
	.st108{fill:#A5A7AA;}
	.st109{fill:#D281C2;}
	.st110{fill:#B859A0;}
	.st111{fill:#BD73BB;}
	.st112{fill:#BABCBE;}
	.st113{fill:#646467;}
	.st114{fill:#7385C6;}
	.st115{fill:#919396;}
	.st116{fill:#F0EFDE;}
	.st117{fill:#C1D4D9;}
	.st118{fill:#A2BEC7;}
	.st119{fill:#D8C7A9;}
	.st120{fill:#C8B89D;}
	.st121{fill:#DFDCC3;}
	.st122{fill:#856F6F;}
	.st123{fill:#808083;}
	.st124{fill:#FFCF75;}
	.st125{fill:#FFBE4B;}
	.st126{fill:#6C6D70;}
	.st127{fill:#FF956B;}
	.st128{fill:#FF795F;}
	.st129{fill:#82CD75;}
	.st130{fill:#55C05B;}
	.st131{fill:#5784D5;}
	.st132{fill:#3E73D5;}
	.st133{fill:#EF83A3;}
	.st134{fill:#EB6495;}
	.st135{fill:#B193CC;}
	.st136{fill:#9C80CC;}
	.st137{fill:#59595B;}
	.st138{fill:#6D574E;}
	.st139{fill:#634E45;}
	.st140{fill:#59453E;}
	.st141{fill:#4C3D36;}
	.st142{fill:#FFA88E;}
	.st143{fill:#CCA080;}
	.st144{fill:#A28F86;}
	.st145{fill:#AFC083;}
	.st146{fill:#B79073;}
	.st147{fill:#9DAC77;}
	.st148{fill:#8F7F77;}
	.st149{fill:#D99480;}
	.st150{fill:#EAD682;}
	.st151{fill:#7C6F72;}
	.st152{fill:#69F298;}
	.st153{fill:#3AD076;}
	.st154{fill:#2A885A;}
	.st155{fill:#BC2A1B;}
	.st156{fill:#A5A8AB;}
	.st157{fill:#49484A;}
	.st158{fill:#9B8370;}
	.st159{fill:#806E5C;}
	.st160{fill:#2B2B2C;}
	.st161{fill:#1E191A;}
</style>
<g>
	<g>
		<rect x="80" y="17" class="st156" width="8" height="8"/>
		<rect x="80" y="33" class="st156" width="8" height="8"/>
		<rect x="80" y="49" class="st156" width="8" height="8"/>
		<rect x="80" y="64.98" class="st156" width="8" height="8"/>
		<rect x="80" y="81" class="st156" width="8" height="8"/>
		<rect x="80" y="96.93" class="st156" width="8" height="8"/>
		<rect x="80" y="113" class="st156" width="8" height="8"/>
		<rect x="80" y="129" class="st156" width="8" height="8"/>
		<rect x="8" y="125" class="st156" width="8" height="8"/>
		<rect x="8" y="109" class="st156" width="8" height="8"/>
		<rect x="8" y="93" class="st156" width="8" height="8"/>
		<rect x="8" y="77.02" class="st156" width="8" height="8"/>
		<rect x="8" y="61" class="st156" width="8" height="8"/>
		<rect x="8" y="45.07" class="st156" width="8" height="8"/>
		<rect x="8" y="29" class="st156" width="8" height="8"/>
		<rect x="8" y="13" class="st156" width="8" height="8"/>
		<path class="st157" d="M94,2v146h-6v-3h-8v3h-6v-29V31V2h6v7h8V2H94z M88,137v-8h-8v8H88z M88,121v-8h-8v8H88z M88,104.93v-8h-8v8
			H88z M88,89v-8h-8v8H88z M88,72.98v-8h-8v8H88z M88,57v-8h-8v8H88z M88,41v-8h-8v8H88z M88,25v-8h-8v8H88z"/>
		<rect x="22" y="119" class="st158" width="52" height="29"/>
		<rect x="22" y="31" class="st158" width="52" height="88"/>
		<rect x="22" y="2" class="st158" width="52" height="29"/>
		<polygon class="st159" points="38,31 38,2 22,2 22,31 22,119 22,148 38,148 38,119 		"/>
		<g>
			<polygon class="st160" points="84,137 80,137 80,129 84,129 84,121 80,121 80,113 84,113 84,104.93 80,104.93 80,96.93 84,96.93 
				84,89 80,89 80,81 84,81 84,72.98 80,72.98 80,64.98 84,64.98 84,57 80,57 80,49 84,49 84,41 80,41 80,33 84,33 84,31 84,25 
				80,25 80,17 84,17 84,9 80,9 80,2 74,2 74,31 74,119 74,148 80,148 80,145 84,145 			"/>
		</g>
		<path class="st157" d="M22,119v29h-6v-7H8v7H2V2h6v3h8V2h6v29V119z M16,133v-8H8v8H16z M16,117v-8H8v8H16z M16,101v-8H8v8H16z
			 M16,85.02v-8H8v8H16z M16,69v-8H8v8H16z M16,53.07v-8H8v8H16z M16,37v-8H8v8H16z M16,21v-8H8v8H16z"/>
		<g>
			<polygon class="st160" points="12,133 8,133 8,125 12,125 12,117 8,117 8,109 12,109 12,101 8,101 8,93 12,93 12,85.02 8,85.02 
				8,77.02 12,77.02 12,69 8,69 8,61 12,61 12,53.07 8,53.07 8,45.07 12,45.07 12,37 8,37 8,29 12,29 12,21 8,21 8,13 12,13 12,5 
				8,5 8,2 2,2 2,148 8,148 8,141 12,141 			"/>
		</g>
	</g>
	<g>
		<path class="st161" d="M16,11H8c-1.104,0-2,0.896-2,2v8c0,1.104,0.896,2,2,2h8c1.104,0,2-0.896,2-2v-8C18,11.896,17.104,11,16,11z
			 M14,19h-4v-4h4V19z"/>
		<path class="st161" d="M16,27H8c-1.104,0-2,0.896-2,2v8c0,1.104,0.896,2,2,2h8c1.104,0,2-0.896,2-2v-8C18,27.896,17.104,27,16,27z
			 M14,35h-4v-4h4V35z"/>
		<path class="st161" d="M16,43.07H8c-1.104,0-2,0.896-2,2v8c0,1.104,0.896,2,2,2h8c1.104,0,2-0.896,2-2v-8
			C18,43.965,17.104,43.07,16,43.07z M14,51.07h-4v-4h4V51.07z"/>
		<path class="st161" d="M16,59H8c-1.104,0-2,0.896-2,2v8c0,1.104,0.896,2,2,2h8c1.104,0,2-0.896,2-2v-8C18,59.896,17.104,59,16,59z
			 M14,67h-4v-4h4V67z"/>
		<path class="st161" d="M16,75.02H8c-1.104,0-2,0.896-2,2v8c0,1.104,0.896,2,2,2h8c1.104,0,2-0.896,2-2v-8
			C18,75.915,17.104,75.02,16,75.02z M14,83.02h-4v-4h4V83.02z"/>
		<path class="st161" d="M16,91H8c-1.104,0-2,0.896-2,2v8c0,1.104,0.896,2,2,2h8c1.104,0,2-0.896,2-2v-8C18,91.896,17.104,91,16,91z
			 M14,99h-4v-4h4V99z"/>
		<path class="st161" d="M16,107H8c-1.104,0-2,0.896-2,2v8c0,1.104,0.896,2,2,2h8c1.104,0,2-0.896,2-2v-8
			C18,107.896,17.104,107,16,107z M14,115h-4v-4h4V115z"/>
		<path class="st161" d="M16,123H8c-1.104,0-2,0.896-2,2v8c0,1.104,0.896,2,2,2h8c1.104,0,2-0.896,2-2v-8
			C18,123.896,17.104,123,16,123z M14,131h-4v-4h4V131z"/>
		<path class="st161" d="M94,0h-6c-1.104,0-2,0.896-2,2v5h-4V2c0-1.104-0.896-2-2-2h-6H22h-6c-1.104,0-2,0.896-2,2v1h-4V2
			c0-1.104-0.896-2-2-2H2C0.895,0,0,0.896,0,2v146c0,1.104,0.896,2,2,2h6c1.104,0,2-0.896,2-2v-5h4v5c0,1.104,0.896,2,2,2h6h52h6
			c1.104,0,2-0.896,2-2v-1h4v1c0,1.104,0.896,2,2,2h6c1.104,0,2-0.896,2-2V2C96,0.896,95.104,0,94,0z M20,146h-2v-5
			c0-1.104-0.896-2-2-2H8c-1.104,0-2,0.896-2,2v5H4V4h2v1c0,1.104,0.896,2,2,2h8c1.104,0,2-0.896,2-2V4h2V146z M72,146H24v-25h48
			V146z M72,117H24V33h48V117z M72,29H24V4h48V29z M92,146h-2v-1c0-1.104-0.896-2-2-2h-8c-1.104,0-2,0.896-2,2v1h-2V4h2v5
			c0,1.104,0.896,2,2,2h8c1.104,0,2-0.896,2-2V4h2V146z"/>
		<path class="st161" d="M88,127h-8c-1.104,0-2,0.896-2,2v8c0,1.104,0.896,2,2,2h8c1.104,0,2-0.896,2-2v-8
			C90,127.896,89.104,127,88,127z M86,135h-4v-4h4V135z"/>
		<path class="st161" d="M88,111h-8c-1.104,0-2,0.896-2,2v8c0,1.104,0.896,2,2,2h8c1.104,0,2-0.896,2-2v-8
			C90,111.896,89.104,111,88,111z M86,119h-4v-4h4V119z"/>
		<path class="st161" d="M88,94.93h-8c-1.104,0-2,0.896-2,2v8c0,1.104,0.896,2,2,2h8c1.104,0,2-0.896,2-2v-8
			C90,95.825,89.104,94.93,88,94.93z M86,102.93h-4v-4h4V102.93z"/>
		<path class="st161" d="M88,79h-8c-1.104,0-2,0.896-2,2v8c0,1.104,0.896,2,2,2h8c1.104,0,2-0.896,2-2v-8C90,79.896,89.104,79,88,79
			z M86,87h-4v-4h4V87z"/>
		<path class="st161" d="M88,62.98h-8c-1.104,0-2,0.896-2,2v8c0,1.104,0.896,2,2,2h8c1.104,0,2-0.896,2-2v-8
			C90,63.876,89.104,62.98,88,62.98z M86,70.98h-4v-4h4V70.98z"/>
		<path class="st161" d="M88,47h-8c-1.104,0-2,0.896-2,2v8c0,1.104,0.896,2,2,2h8c1.104,0,2-0.896,2-2v-8C90,47.896,89.104,47,88,47
			z M86,55h-4v-4h4V55z"/>
		<path class="st161" d="M88,31h-8c-1.104,0-2,0.896-2,2v8c0,1.104,0.896,2,2,2h8c1.104,0,2-0.896,2-2v-8C90,31.896,89.104,31,88,31
			z M86,39h-4v-4h4V39z"/>
		<path class="st161" d="M88,15h-8c-1.104,0-2,0.896-2,2v8c0,1.104,0.896,2,2,2h8c1.104,0,2-0.896,2-2v-8C90,15.896,89.104,15,88,15
			z M86,23h-4v-4h4V23z"/>
		<path class="st161" d="M33,62c0.512,0,1.023-0.195,1.414-0.586l17-17c0.781-0.781,0.781-2.047,0-2.828
			c-0.781-0.781-2.047-0.781-2.828,0l-17,17c-0.781,0.781-0.781,2.047,0,2.828C31.976,61.805,32.488,62,33,62z"/>
		<path class="st161" d="M31,76c0.512,0,1.023-0.195,1.414-0.586l34-34c0.781-0.781,0.781-2.047,0-2.828
			c-0.781-0.781-2.047-0.781-2.828,0l-34,34c-0.781,0.781-0.781,2.047,0,2.828C29.976,75.805,30.488,76,31,76z"/>
	</g>
</g>
</svg>
